<svg width="23" height="23" viewBox="0 0 23 23" fill="none" xmlns="http://www.w3.org/2000/svg">
<path d="M0.45715 13.6856C1.54268 19.787 7.34464 23.8671 13.4835 22.7816C19.5849 21.6961 23.665 15.8941 22.5795 9.75525C21.4939 3.69126 15.6545 -0.388829 9.55313 0.6967C3.45171 1.7448 -0.628379 7.58419 0.45715 13.6856Z" fill="#FFDD67"/>
<path d="M15.3911 10.8782C16.4248 10.8782 17.2627 10.0403 17.2627 9.00661C17.2627 7.97295 16.4248 7.13501 15.3911 7.13501C14.3575 7.13501 13.5195 7.97295 13.5195 9.00661C13.5195 10.0403 14.3575 10.8782 15.3911 10.8782Z" fill="#664E27"/>
<path d="M6.89406 12.3755C7.92772 12.3755 8.76566 11.5376 8.76566 10.5039C8.76566 9.47027 7.92772 8.63232 6.89406 8.63232C5.86041 8.63232 5.02246 9.47027 5.02246 10.5039C5.02246 11.5376 5.86041 12.3755 6.89406 12.3755Z" fill="#664E27"/>
<path d="M15.7275 15.4075C13.5564 14.846 11.2357 15.2577 9.40149 16.5304C8.95231 16.8673 9.81324 18.0277 10.2624 17.7282C11.4603 16.8673 13.4067 16.3058 15.3906 16.8299C15.8772 16.9422 16.289 15.5946 15.7275 15.4075Z" fill="#664E27"/>
</svg>
