<svg width="36" height="36" viewBox="0 0 36 36" fill="none" xmlns="http://www.w3.org/2000/svg">
<g id="mdi:fruit-watermelon">
<path id="Vector" d="M24.4166 24.4167C29.375 19.4583 29.375 11.4375 24.4166 6.62501L6.62496 24.4167C11.4375 29.375 19.4583 29.375 24.4166 24.4167ZM23.8333 10.7083C24.7083 10.7083 25.2916 11.2917 25.2916 12.1667C25.2916 13.0417 24.7083 13.625 23.8333 13.625C22.9583 13.625 22.375 13.0417 22.375 12.1667C22.375 11.2917 22.9583 10.7083 23.8333 10.7083ZM23.8333 16.5417C24.7083 16.5417 25.2916 17.125 25.2916 18C25.2916 18.875 24.7083 19.4583 23.8333 19.4583C22.9583 19.4583 22.375 18.875 22.375 18C22.375 17.125 22.9583 16.5417 23.8333 16.5417ZM18 16.5417C18.875 16.5417 19.4583 17.125 19.4583 18C19.4583 18.875 18.875 19.4583 18 19.4583C17.125 19.4583 16.5416 18.875 16.5416 18C16.5416 17.125 17.125 16.5417 18 16.5417ZM18 22.375C18.875 22.375 19.4583 22.9583 19.4583 23.8333C19.4583 24.7083 18.875 25.2917 18 25.2917C17.125 25.2917 16.5416 24.7083 16.5416 23.8333C16.5416 22.9583 17.125 22.375 18 22.375ZM12.1666 25.2917C11.2916 25.2917 10.7083 24.7083 10.7083 23.8333C10.7083 22.9583 11.2916 22.375 12.1666 22.375C13.0416 22.375 13.625 22.9583 13.625 23.8333C13.625 24.7083 13.0416 25.2917 12.1666 25.2917ZM27.625 27.625C20.9166 34.3333 10.125 34.3333 3.41663 27.625L5.45829 25.5833C11 31.125 19.8958 31.125 25.4375 25.5833C30.9791 20.0417 30.9791 11.1458 25.4375 5.60417L27.625 3.41667C34.1875 10.125 34.1875 20.9167 27.625 27.625Z" fill="#FF7A45"/>
</g>
</svg>
