<svg width="16" height="16" viewBox="0 0 16 16" fill="none" xmlns="http://www.w3.org/2000/svg">
<g clip-path="url(#clip0_295_3901)">
<path d="M12.4332 1.89999L12.8399 4.47332L15.1799 5.66666L13.9999 7.99999L15.1866 10.3333L12.8266 11.5267L12.4199 14.1L9.82656 13.6933L7.9799 15.5333L6.12656 13.6667L3.55323 14.0933L3.1399 11.5L0.813232 10.3133L1.9999 7.97999L0.819899 5.66666L3.1599 4.45999L3.56657 1.90666L6.14657 2.33332L7.9999 0.459991L9.84657 2.30666L12.4332 1.89999ZM6.33323 4.66666C6.06802 4.66666 5.81366 4.77202 5.62612 4.95955C5.43859 5.14709 5.33323 5.40144 5.33323 5.66666C5.33323 5.93187 5.43859 6.18623 5.62612 6.37377C5.81366 6.5613 6.06802 6.66666 6.33323 6.66666C6.59845 6.66666 6.8528 6.5613 7.04034 6.37377C7.22788 6.18623 7.33323 5.93187 7.33323 5.66666C7.33323 5.40144 7.22788 5.14709 7.04034 4.95955C6.8528 4.77202 6.59845 4.66666 6.33323 4.66666ZM9.66656 9.33333C9.40135 9.33333 9.14699 9.43868 8.95946 9.62622C8.77192 9.81376 8.66656 10.0681 8.66656 10.3333C8.66656 10.5985 8.77192 10.8529 8.95946 11.0404C9.14699 11.228 9.40135 11.3333 9.66656 11.3333C9.93178 11.3333 10.1861 11.228 10.3737 11.0404C10.5612 10.8529 10.6666 10.5985 10.6666 10.3333C10.6666 10.0681 10.5612 9.81376 10.3737 9.62622C10.1861 9.43868 9.93178 9.33333 9.66656 9.33333ZM5.60656 11.3333L11.3332 5.60666L10.3932 4.66666L4.66657 10.3933L5.60656 11.3333Z" fill="#FA541C"/>
</g>
<defs>
<clipPath id="clip0_295_3901">
<rect width="16" height="16" fill="white"/>
</clipPath>
</defs>
</svg>
