<svg width="25" height="24" viewBox="0 0 25 24" fill="none" xmlns="http://www.w3.org/2000/svg">
<path d="M23.717 11.7391C23.717 17.9461 18.7066 22.9565 12.4996 22.9565C6.29266 22.9565 1.28223 17.9461 1.28223 11.7391C1.28223 5.53216 6.29266 0.521729 12.4996 0.521729C18.7066 0.521729 23.717 5.53216 23.717 11.7391Z" fill="#FFDD67"/>
<path d="M18.8566 13.9827C18.8566 13.6836 18.6696 13.3097 18.1836 13.1975C16.8749 12.9358 14.9679 12.7114 12.5001 12.7114C10.0323 12.7114 8.12529 12.9732 6.8166 13.1975C6.33051 13.3097 6.14355 13.6836 6.14355 13.9827C6.14355 16.7123 8.23747 19.4419 12.5001 19.4419C16.7627 19.4419 18.8566 16.7123 18.8566 13.9827Z" fill="#664E27"/>
<path d="M11.1907 9.83226C10.4803 7.9253 9.43332 6.95312 8.38637 6.95312C7.33941 6.95312 6.29245 7.9253 5.58202 9.83226C5.50724 10.0192 5.88115 10.3557 6.06811 10.1688C6.74115 9.45834 7.56376 9.15921 8.38637 9.15921C9.20897 9.15921 10.0316 9.45834 10.7046 10.1688C10.929 10.3557 11.2655 10.0192 11.1907 9.83226Z" fill="#664E27"/>
<path d="M19.3792 9.83226C18.6688 7.9253 17.6218 6.95312 16.5748 6.95312C15.5279 6.95312 14.4809 7.9253 13.7705 9.83226C13.6957 10.0192 14.0696 10.3557 14.2566 10.1688C14.9296 9.45834 15.7522 9.15921 16.5748 9.15921C17.4348 9.15921 18.2201 9.45834 18.8931 10.1688C19.0801 10.3557 19.454 10.0192 19.3792 9.83226Z" fill="#664E27"/>
<path d="M17.2481 14.0947C16.4255 13.9452 14.7055 13.7208 12.4994 13.7208C10.2934 13.7208 8.57336 13.9452 7.75075 14.0947C7.26466 14.1695 7.22727 14.3565 7.26466 14.6556C7.30205 14.8052 7.30205 15.0295 7.37684 15.2539C7.41423 15.4782 7.48901 15.5904 7.86292 15.553C8.57336 15.4782 16.4629 15.4782 17.1734 15.553C17.5473 15.5904 17.5847 15.4782 17.6594 15.2539C17.6968 15.0295 17.7342 14.8426 17.7716 14.6556C17.7716 14.3565 17.7342 14.1695 17.2481 14.0947Z" fill="white"/>
<path d="M23.717 11.7391C23.717 17.9461 18.7066 22.9565 12.4996 22.9565C6.29266 22.9565 1.28223 17.9461 1.28223 11.7391C1.28223 5.53216 6.29266 0.521729 12.4996 0.521729C18.7066 0.521729 23.717 5.53216 23.717 11.7391Z" fill="#FFDD67"/>
<path d="M18.8566 13.9827C18.8566 13.6836 18.6696 13.3097 18.1836 13.1975C16.8749 12.9358 14.9679 12.7114 12.5001 12.7114C10.0323 12.7114 8.12529 12.9732 6.8166 13.1975C6.33051 13.3097 6.14355 13.6836 6.14355 13.9827C6.14355 16.7123 8.23747 19.4419 12.5001 19.4419C16.7627 19.4419 18.8566 16.7123 18.8566 13.9827Z" fill="#664E27"/>
<path d="M11.1907 9.83226C10.4803 7.9253 9.43332 6.95312 8.38637 6.95312C7.33941 6.95312 6.29245 7.9253 5.58202 9.83226C5.50724 10.0192 5.88115 10.3557 6.06811 10.1688C6.74115 9.45834 7.56376 9.15921 8.38637 9.15921C9.20897 9.15921 10.0316 9.45834 10.7046 10.1688C10.929 10.3557 11.2655 10.0192 11.1907 9.83226Z" fill="#664E27"/>
<path d="M19.3792 9.83226C18.6688 7.9253 17.6218 6.95312 16.5748 6.95312C15.5279 6.95312 14.4809 7.9253 13.7705 9.83226C13.6957 10.0192 14.0696 10.3557 14.2566 10.1688C14.9296 9.45834 15.7522 9.15921 16.5748 9.15921C17.4348 9.15921 18.2201 9.45834 18.8931 10.1688C19.0801 10.3557 19.454 10.0192 19.3792 9.83226Z" fill="#664E27"/>
<path d="M17.2481 14.0947C16.4255 13.9452 14.7055 13.7208 12.4994 13.7208C10.2934 13.7208 8.57336 13.9452 7.75075 14.0947C7.26466 14.1695 7.22727 14.3565 7.26466 14.6556C7.30205 14.8052 7.30205 15.0295 7.37684 15.2539C7.41423 15.4782 7.48901 15.553 7.86292 15.553H17.1734C17.5473 15.553 17.5847 15.4782 17.6594 15.2539C17.6968 15.0295 17.7342 14.8426 17.7716 14.6556C17.7716 14.3565 17.7342 14.1695 17.2481 14.0947Z" fill="white"/>
</svg>
