<svg width="25" height="24" viewBox="0 0 25 24" fill="none" xmlns="http://www.w3.org/2000/svg">
<path d="M1.28223 11.7391C1.28223 17.9461 6.29266 22.9565 12.4996 22.9565C18.7066 22.9565 23.717 17.9461 23.717 11.7391C23.717 5.53216 18.7066 0.521729 12.4996 0.521729C6.29266 0.521729 1.28223 5.53216 1.28223 11.7391Z" fill="#FFDD67"/>
<path d="M18.6689 5.86868C18.6689 9.57042 23.7168 9.57042 23.7168 5.86868C23.7168 3.17651 21.2116 0.521729 21.2116 0.521729C21.2116 0.521729 18.6689 3.17651 18.6689 5.86868Z" fill="#65B1EF"/>
<path d="M16.7993 15.1042C17.8318 15.1042 18.6688 14.2672 18.6688 13.2347C18.6688 12.2021 17.8318 11.3651 16.7993 11.3651C15.7667 11.3651 14.9297 12.2021 14.9297 13.2347C14.9297 14.2672 15.7667 15.1042 16.7993 15.1042Z" fill="#664E27"/>
<path d="M8.19964 15.1042C9.23218 15.1042 10.0692 14.2672 10.0692 13.2347C10.0692 12.2021 9.23218 11.3651 8.19964 11.3651C7.16711 11.3651 6.33008 12.2021 6.33008 13.2347C6.33008 14.2672 7.16711 15.1042 8.19964 15.1042Z" fill="#664E27"/>
<path d="M10.107 7.96251C8.91048 8.97208 7.30265 9.42077 5.73222 9.12164C5.50787 9.08425 5.32091 9.86947 5.58265 9.94425C7.37744 10.2808 9.247 9.7573 10.6305 8.59817C10.8174 8.41121 10.2566 7.81295 10.107 7.96251ZM19.2679 9.08425C17.6974 9.34599 16.0896 8.93469 14.8931 7.92512C14.7435 7.77556 14.1453 8.37382 14.3696 8.56077C15.7531 9.7573 17.6227 10.2434 19.4174 9.90686C19.6792 9.83208 19.4922 9.04686 19.2679 9.08425Z" fill="#917524"/>
<path d="M15.4902 19.2173H9.50757C8.9467 19.2173 8.9467 17.7217 9.50757 17.7217H15.4902C16.051 17.7217 16.051 19.2173 15.4902 19.2173Z" fill="#664E27"/>
</svg>
