<svg width="32" height="36" viewBox="0 0 32 36" fill="none" xmlns="http://www.w3.org/2000/svg">
<g id="clarity:store-solid" clip-path="url(#clip0_178_4493)">
<path id="Vector" d="M28.5 30H16.5V22H14.5V30H8.5V22H6.5V30C6.5 30.5304 6.71071 31.0391 7.08579 31.4142C7.46086 31.7893 7.96957 32 8.5 32H28.5C29.0304 32 29.5391 31.7893 29.9142 31.4142C30.2893 31.0391 30.5 30.5304 30.5 30V22H28.5V30Z" fill="#FF7A45"/>
<path id="Vector_2" d="M34.29 13.27L30.21 5.11C30.0444 4.77679 29.7892 4.49637 29.473 4.30028C29.1568 4.10419 28.7921 4.0002 28.42 4H8.58002C8.20793 4.0002 7.84328 4.10419 7.52706 4.30028C7.21084 4.49637 6.95559 4.77679 6.79002 5.11L2.71002 13.27C2.57071 13.5495 2.49879 13.8577 2.50002 14.17V17.25C2.4991 17.7173 2.66185 18.1702 2.96002 18.53C3.40067 19.0351 3.94491 19.4395 4.55575 19.7156C5.16658 19.9916 5.82969 20.133 6.50002 20.13C7.59379 20.1317 8.6542 19.7535 9.50002 19.06C10.3458 19.7539 11.406 20.1331 12.5 20.1331C13.594 20.1331 14.6542 19.7539 15.5 19.06C16.3458 19.7539 17.406 20.1331 18.5 20.1331C19.594 20.1331 20.6542 19.7539 21.5 19.06C22.3458 19.7539 23.406 20.1331 24.5 20.1331C25.594 20.1331 26.6542 19.7539 27.5 19.06C28.4442 19.8352 29.6521 20.2142 30.8699 20.1172C32.0877 20.0202 33.2204 19.4549 34.03 18.54C34.3318 18.1816 34.4981 17.7285 34.5 17.26V14.17C34.5012 13.8577 34.4293 13.5495 34.29 13.27ZM15.5 14.4V15.92L14.68 17C14.4283 17.3431 14.0993 17.6221 13.7197 17.8144C13.3401 18.0067 12.9206 18.1069 12.495 18.1069C12.0695 18.1069 11.6499 18.0067 11.2703 17.8144C10.8907 17.6221 10.5617 17.3431 10.31 17L9.50002 15.88V14.4L12.09 6H16.5L15.5 14.4ZM27.5 15.88L26.69 17C26.4383 17.3431 26.1093 17.6221 25.7297 17.8144C25.3501 18.0067 24.9305 18.1069 24.505 18.1069C24.0795 18.1069 23.6599 18.0067 23.2803 17.8144C22.9007 17.6221 22.5717 17.3431 22.32 17L21.5 15.88V14.4L20.5 6H24.95L27.5 14.4V15.88Z" fill="#FF7A45"/>
</g>
<defs>
<clipPath id="clip0_178_4493">
<rect width="36" height="36" fill="white" transform="translate(0.5)"/>
</clipPath>
</defs>
</svg>
