<svg width="25" height="24" viewBox="0 0 25 24" fill="none" xmlns="http://www.w3.org/2000/svg">
<path d="M16.6111 7.44444H9.94444M16.6111 11.8889H9.94444M16.6111 16.3333H12.1667M5.5 3H21.0556V23L19.9089 22.0178C19.5061 21.6726 18.9932 21.4829 18.4628 21.4829C17.9323 21.4829 17.4194 21.6726 17.0167 22.0178L15.87 23L14.7244 22.0178C14.3216 21.6723 13.8085 21.4824 13.2778 21.4824C12.7471 21.4824 12.2339 21.6723 11.8311 22.0178L10.6856 23L9.53889 22.0178C9.13614 21.6726 8.62321 21.4829 8.09278 21.4829C7.56235 21.4829 7.04942 21.6726 6.64667 22.0178L5.5 23V3Z" stroke="black" stroke-linecap="round" stroke-linejoin="round"/>
</svg>
