<svg width="36" height="36" viewBox="0 0 36 36" fill="none" xmlns="http://www.w3.org/2000/svg">
<g id="material-symbols:point-of-sale-rounded">
<path id="Vector" d="M10.7083 12.1667C9.90621 12.1667 9.21934 11.8808 8.64767 11.3092C8.076 10.7375 7.79066 10.0511 7.79163 9.24999V6.33333C7.79163 5.53124 8.07746 4.84437 8.64913 4.2727C9.2208 3.70103 9.90718 3.41569 10.7083 3.41666H25.2916C26.0937 3.41666 26.7806 3.70249 27.3523 4.27416C27.9239 4.84583 28.2093 5.53221 28.2083 6.33333V9.24999C28.2083 10.0521 27.9225 10.739 27.3508 11.3106C26.7791 11.8823 26.0927 12.1676 25.2916 12.1667H10.7083ZM12.1666 9.24999H23.8333C24.2222 9.24999 24.4959 9.07353 24.6543 8.72062C24.8128 8.3677 25.0252 8.05805 25.2916 7.79166C25.2916 7.37846 25.1516 7.03187 24.8716 6.75187C24.5916 6.47187 24.2455 6.33235 23.8333 6.33333H12.1666C11.7534 6.33333 11.4068 6.47333 11.1268 6.75333C10.8468 7.03333 10.7073 7.37944 10.7083 7.79166C10.9757 8.05902 11.1886 8.36916 11.347 8.72208C11.5055 9.07499 11.7787 9.25096 12.1666 9.24999ZM6.3333 32.5833C5.53121 32.5833 4.84434 32.2975 4.27267 31.7258C3.701 31.1542 3.41566 30.4678 3.41663 29.6667V28.2083H32.5833V29.6667C32.5833 30.4687 32.2975 31.1556 31.7258 31.7273C31.1541 32.299 30.4677 32.5843 29.6666 32.5833H6.3333ZM3.41663 26.75L8.48434 15.3385C8.72739 14.8038 9.09198 14.3843 9.57809 14.08C10.0642 13.7757 10.5868 13.624 11.1458 13.625H24.8541C25.4132 13.625 25.9357 13.7771 26.4218 14.0814C26.9079 14.3858 27.2725 14.8048 27.5156 15.3385L32.5833 26.75H3.41663ZM12.8958 23.8333H14.3541C14.5486 23.8333 14.7187 23.7604 14.8645 23.6146C15.0104 23.4687 15.0833 23.2986 15.0833 23.1042C15.0833 22.9097 15.0104 22.7396 14.8645 22.5937C14.7187 22.4479 14.5486 22.375 14.3541 22.375H12.8958C12.7014 22.375 12.5312 22.4479 12.3854 22.5937C12.2395 22.7396 12.1666 22.9097 12.1666 23.1042C12.1666 23.2986 12.2395 23.4687 12.3854 23.6146C12.5312 23.7604 12.7014 23.8333 12.8958 23.8333ZM12.8958 20.9167H14.3541C14.5486 20.9167 14.7187 20.8437 14.8645 20.6979C15.0104 20.5521 15.0833 20.3819 15.0833 20.1875C15.0833 19.993 15.0104 19.8229 14.8645 19.6771C14.7187 19.5312 14.5486 19.4583 14.3541 19.4583H12.8958C12.7014 19.4583 12.5312 19.5312 12.3854 19.6771C12.2395 19.8229 12.1666 19.993 12.1666 20.1875C12.1666 20.3819 12.2395 20.5521 12.3854 20.6979C12.5312 20.8437 12.7014 20.9167 12.8958 20.9167ZM12.8958 18H14.3541C14.5486 18 14.7187 17.9271 14.8645 17.7812C15.0104 17.6354 15.0833 17.4653 15.0833 17.2708C15.0833 17.0764 15.0104 16.9062 14.8645 16.7604C14.7187 16.6146 14.5486 16.5417 14.3541 16.5417H12.8958C12.7014 16.5417 12.5312 16.6146 12.3854 16.7604C12.2395 16.9062 12.1666 17.0764 12.1666 17.2708C12.1666 17.4653 12.2395 17.6354 12.3854 17.7812C12.5312 17.9271 12.7014 18 12.8958 18ZM17.2708 23.8333H18.7291C18.9236 23.8333 19.0937 23.7604 19.2395 23.6146C19.3854 23.4687 19.4583 23.2986 19.4583 23.1042C19.4583 22.9097 19.3854 22.7396 19.2395 22.5937C19.0937 22.4479 18.9236 22.375 18.7291 22.375H17.2708C17.0764 22.375 16.9062 22.4479 16.7604 22.5937C16.6145 22.7396 16.5416 22.9097 16.5416 23.1042C16.5416 23.2986 16.6145 23.4687 16.7604 23.6146C16.9062 23.7604 17.0764 23.8333 17.2708 23.8333ZM17.2708 20.9167H18.7291C18.9236 20.9167 19.0937 20.8437 19.2395 20.6979C19.3854 20.5521 19.4583 20.3819 19.4583 20.1875C19.4583 19.993 19.3854 19.8229 19.2395 19.6771C19.0937 19.5312 18.9236 19.4583 18.7291 19.4583H17.2708C17.0764 19.4583 16.9062 19.5312 16.7604 19.6771C16.6145 19.8229 16.5416 19.993 16.5416 20.1875C16.5416 20.3819 16.6145 20.5521 16.7604 20.6979C16.9062 20.8437 17.0764 20.9167 17.2708 20.9167ZM17.2708 18H18.7291C18.9236 18 19.0937 17.9271 19.2395 17.7812C19.3854 17.6354 19.4583 17.4653 19.4583 17.2708C19.4583 17.0764 19.3854 16.9062 19.2395 16.7604C19.0937 16.6146 18.9236 16.5417 18.7291 16.5417H17.2708C17.0764 16.5417 16.9062 16.6146 16.7604 16.7604C16.6145 16.9062 16.5416 17.0764 16.5416 17.2708C16.5416 17.4653 16.6145 17.6354 16.7604 17.7812C16.9062 17.9271 17.0764 18 17.2708 18ZM21.6458 23.8333H23.1041C23.2986 23.8333 23.4687 23.7604 23.6145 23.6146C23.7604 23.4687 23.8333 23.2986 23.8333 23.1042C23.8333 22.9097 23.7604 22.7396 23.6145 22.5937C23.4687 22.4479 23.2986 22.375 23.1041 22.375H21.6458C21.4514 22.375 21.2812 22.4479 21.1354 22.5937C20.9895 22.7396 20.9166 22.9097 20.9166 23.1042C20.9166 23.2986 20.9895 23.4687 21.1354 23.6146C21.2812 23.7604 21.4514 23.8333 21.6458 23.8333ZM21.6458 20.9167H23.1041C23.2986 20.9167 23.4687 20.8437 23.6145 20.6979C23.7604 20.5521 23.8333 20.3819 23.8333 20.1875C23.8333 19.993 23.7604 19.8229 23.6145 19.6771C23.4687 19.5312 23.2986 19.4583 23.1041 19.4583H21.6458C21.4514 19.4583 21.2812 19.5312 21.1354 19.6771C20.9895 19.8229 20.9166 19.993 20.9166 20.1875C20.9166 20.3819 20.9895 20.5521 21.1354 20.6979C21.2812 20.8437 21.4514 20.9167 21.6458 20.9167ZM21.6458 18H23.1041C23.2986 18 23.4687 17.9271 23.6145 17.7812C23.7604 17.6354 23.8333 17.4653 23.8333 17.2708C23.8333 17.0764 23.7604 16.9062 23.6145 16.7604C23.4687 16.6146 23.2986 16.5417 23.1041 16.5417H21.6458C21.4514 16.5417 21.2812 16.6146 21.1354 16.7604C20.9895 16.9062 20.9166 17.0764 20.9166 17.2708C20.9166 17.4653 20.9895 17.6354 21.1354 17.7812C21.2812 17.9271 21.4514 18 21.6458 18Z" fill="#FF7A45"/>
</g>
</svg>
