<svg width="36" height="35" viewBox="0 0 36 35" fill="none" xmlns="http://www.w3.org/2000/svg">
<g id="ph:carrot-fill">
<path id="Vector" d="M32.625 10.9375H28.0463C29.0367 12.606 29.4331 14.5456 29.174 16.4554C28.9149 18.3653 28.0148 20.1386 26.6133 21.5004C25.4152 22.6885 23.8556 23.8137 22.1344 24.8514C22.0267 24.9151 21.9 24.9418 21.7748 24.9272C21.6496 24.9126 21.533 24.8575 21.4439 24.7707L16.5445 20.0074C16.438 19.9038 16.3111 19.822 16.1714 19.767C16.0317 19.7119 15.882 19.6848 15.7313 19.6871C15.5806 19.6894 15.4319 19.7211 15.294 19.7803C15.1561 19.8396 15.0319 19.9252 14.9288 20.032C14.7302 20.2486 14.6254 20.5313 14.6361 20.8212C14.6469 21.1111 14.7724 21.3858 14.9864 21.5879L19.1883 25.673C19.2511 25.7339 19.2981 25.8084 19.3256 25.8904C19.3532 25.9723 19.3604 26.0595 19.3466 26.1446C19.3329 26.2298 19.2987 26.3106 19.2467 26.3805C19.1948 26.4504 19.1266 26.5073 19.0477 26.5467C13.4634 29.3658 7.45313 31.2457 6.57845 31.5109C6.16002 31.7004 5.69176 31.7603 5.23719 31.6822C4.78261 31.6042 4.36371 31.3922 4.03731 31.0748C3.7109 30.7575 3.49279 30.3502 3.41255 29.9083C3.33231 29.4663 3.39383 29.0111 3.58876 28.6043C3.97267 27.4135 7.66688 16.2627 12.7097 10.3728C12.7598 10.3146 12.8219 10.2671 12.8919 10.2334C12.9619 10.1997 13.0384 10.1806 13.1165 10.1773C13.1945 10.1739 13.2725 10.1864 13.3453 10.214C13.4181 10.2415 13.4842 10.2835 13.5394 10.3373L19.4527 16.0877C19.562 16.194 19.6928 16.2772 19.8367 16.3321C19.9806 16.3871 20.1347 16.4126 20.2892 16.4071C20.4437 16.4015 20.5954 16.3651 20.7348 16.3001C20.8742 16.235 20.9983 16.1427 21.0994 16.0289C21.2842 15.812 21.3782 15.5353 21.3626 15.2541C21.3469 14.9728 21.2228 14.7076 21.015 14.5113L15.1988 8.85663C15.1395 8.79922 15.0941 8.72965 15.0659 8.65302C15.0378 8.57639 15.0276 8.49461 15.0361 8.41366C15.0446 8.3327 15.0715 8.25461 15.115 8.18508C15.1585 8.11554 15.2173 8.05631 15.2874 8.01171C16.6826 7.11627 18.3069 6.61638 19.978 6.56808C21.6491 6.51979 23.3011 6.92499 24.7486 7.73827V3.28124C24.7483 3.13118 24.7797 2.98265 24.8409 2.8449C24.9021 2.70715 24.9918 2.58312 25.1045 2.48052C25.2171 2.37793 25.3503 2.29898 25.4957 2.24856C25.641 2.19815 25.7955 2.17736 25.9495 2.18749C26.2394 2.21201 26.509 2.34244 26.7039 2.5525C26.8989 2.76257 27.0047 3.03665 27 3.31952V7.2037L30.7041 3.60116C30.8086 3.49954 30.9327 3.41893 31.0693 3.36394C31.2058 3.30894 31.3522 3.28063 31.5 3.28063C31.6478 3.28063 31.7942 3.30894 31.9308 3.36394C32.0673 3.41893 32.1914 3.49954 32.2959 3.60116C32.4005 3.70278 32.4834 3.82343 32.54 3.9562C32.5965 4.08897 32.6256 4.23128 32.6256 4.37499C32.6256 4.51871 32.5965 4.66101 32.54 4.79379C32.4834 4.92656 32.4005 5.0472 32.2959 5.14882L28.5905 8.74999H32.5856C32.8766 8.74547 33.1585 8.84833 33.3746 9.03784C33.5906 9.22735 33.7248 9.48943 33.75 9.77128C33.7602 9.92089 33.7387 10.0709 33.6868 10.2121C33.6348 10.3533 33.5536 10.4826 33.4481 10.592C33.3426 10.7013 33.2151 10.7884 33.0735 10.8479C32.9319 10.9073 32.7792 10.9378 32.625 10.9375Z" fill="#FF7A45"/>
</g>
</svg>
