<svg width="23" height="22" viewBox="0 0 23 22" fill="none" xmlns="http://www.w3.org/2000/svg">
<path d="M11.5 11C14.5376 11 17 8.53757 17 5.5C17 2.46243 14.5376 0 11.5 0C8.46243 0 6 2.46243 6 5.5C6 8.53757 8.46243 11 11.5 11ZM15.1667 5.5C15.1667 7.52504 13.525 9.16667 11.5 9.16667C9.47496 9.16667 7.83333 7.52504 7.83333 5.5C7.83333 3.47496 9.47496 1.83333 11.5 1.83333C13.525 1.83333 15.1667 3.47496 15.1667 5.5Z" fill="black" fill-opacity="0.85"/>
<path d="M22.5 20.1667C22.5 22 20.6667 22 20.6667 22H2.33333C2.33333 22 0.5 22 0.5 20.1667C0.5 18.3333 2.33333 12.8333 11.5 12.8333C20.6667 12.8333 22.5 18.3333 22.5 20.1667ZM20.6666 20.1603C20.664 19.7078 20.3847 18.3525 19.1411 17.1089C17.9453 15.9131 15.6967 14.6667 11.5 14.6667C7.30328 14.6667 5.05465 15.9131 3.85884 17.1089C2.61522 18.3525 2.33595 19.7078 2.33333 20.1603H20.6666Z" fill="black" fill-opacity="0.85"/>
</svg>
